<?xml version="1.0" standalone="no"?>
<!DOCTYPE svg PUBLIC "-//W3C//DTD SVG 20010904//EN"
 "http://www.w3.org/TR/2001/REC-SVG-20010904/DTD/svg10.dtd">
<svg version="1.0" xmlns="http://www.w3.org/2000/svg"
 width="700.000000pt" height="700.000000pt" viewBox="0 0 700.000000 700.000000"
 preserveAspectRatio="xMidYMid meet">
<metadata>
Created by potrace 1.14, written by Peter Selinger 2001-2017
</metadata>
<g transform="translate(0.000000,700.000000) scale(0.100000,-0.100000)"
fill="#000000" stroke="none">
<path d="M1702 6825 c-15 -56 -62 -246 -66 -270 -2 -11 -9 -38 -14 -60 -6 -22
-13 -51 -16 -65 -4 -25 -39 -172 -76 -325 -11 -44 -51 -217 -91 -385 -39 -168
-87 -370 -106 -450 -19 -80 -36 -155 -39 -168 -2 -12 -14 -62 -25 -110 -23
-97 -28 -116 -35 -151 -3 -14 -7 -28 -9 -31 -2 -4 -7 -21 -10 -38 -3 -17 -14
-70 -26 -119 -12 -48 -23 -96 -25 -107 -2 -10 -12 -55 -23 -100 -55 -226 -83
-343 -87 -366 -3 -14 -23 -99 -45 -189 -21 -90 -41 -173 -43 -185 -2 -11 -12
-52 -21 -91 -9 -38 -18 -77 -20 -85 -1 -8 -8 -35 -15 -60 -7 -25 -14 -54 -16
-65 -6 -31 -11 -55 -29 -130 -9 -38 -18 -77 -20 -85 -2 -8 -44 -188 -95 -400
-50 -212 -93 -396 -96 -410 -4 -20 -15 -64 -50 -215 -3 -11 -7 -31 -10 -44 -3
-14 -7 -28 -9 -31 -2 -4 -6 -20 -9 -36 -5 -28 -106 -462 -160 -684 -14 -58
-46 -194 -71 -304 -26 -109 -48 -204 -51 -210 -2 -6 -6 -23 -9 -38 -11 -61
-16 -82 -20 -88 -2 -4 -7 -20 -9 -36 -7 -38 -11 -56 -31 -139 -9 -38 -18 -77
-20 -85 -16 -72 -67 -289 -71 -302 -5 -17 160 -18 3375 -18 1860 0 3381 1
3381 3 0 3 -199 598 -213 637 -3 8 -109 330 -237 715 -127 385 -235 709 -240
720 -4 11 -207 619 -450 1350 -244 732 -445 1336 -448 1343 -2 7 -25 -20 -49
-60 -25 -40 -55 -89 -68 -108 -12 -19 -101 -161 -197 -315 -1139 -1824 -1432
-2292 -1441 -2303 -11 -14 -22 9 -103 228 -20 52 -41 109 -48 125 -8 17 -30
75 -51 130 -20 55 -43 114 -50 130 -7 17 -52 134 -100 260 -48 127 -93 244
-100 260 -7 17 -97 251 -200 520 -102 270 -191 499 -196 510 -5 11 -86 220
-180 465 -94 245 -181 472 -194 505 -13 33 -67 175 -120 315 -53 140 -101 264
-105 275 -5 11 -19 45 -30 75 -11 30 -25 64 -30 75 -9 20 -313 817 -322 845
-3 9 -10 -2 -16 -25z m111 -1202 c8 -21 227 -591 487 -1268 259 -676 478
-1243 485 -1260 7 -16 38 -97 69 -180 31 -82 61 -159 66 -170 5 -11 127 -328
271 -705 144 -377 265 -689 269 -693 4 -5 22 15 39 45 69 116 125 203 133 206
4 2 8 8 8 13 0 7 34 64 115 189 12 19 108 171 211 337 104 167 196 314 204
327 8 13 31 50 50 81 54 89 62 101 274 441 110 175 219 348 241 384 78 122
310 494 314 504 2 6 8 15 13 21 5 5 34 51 64 100 31 50 61 95 67 102 9 9 154
-415 613 -1793 l601 -1804 -2919 0 c-2776 0 -2919 1 -2914 18 3 9 23 94 45
187 22 94 52 220 66 280 14 61 35 146 45 190 32 134 70 297 85 360 33 138 147
622 151 643 3 13 30 128 60 255 31 128 57 239 59 247 7 32 98 422 126 540 45
187 53 224 114 485 30 132 62 265 70 295 13 52 53 218 59 250 2 8 6 26 9 40
12 44 147 621 151 643 2 12 21 90 41 172 20 83 39 161 41 175 3 13 21 90 40
170 45 182 42 172 43 193 2 29 18 19 34 -20z"/>
</g>
</svg>
